<?xml version="1.0" encoding="UTF-8"?>
<svg id="Layer_2" data-name="Layer 2" xmlns="http://www.w3.org/2000/svg" viewBox="0 0 300.15 319.69">
  <defs>
    <style>
      .cls-1 {
        fill: #825740;
      }

      .cls-2 {
        fill: #79b6df;
      }

      .cls-3 {
        fill: #b49f92;
      }

      .cls-4 {
        fill: #254762;
      }

      .cls-5 {
        fill: #704228;
      }

      .cls-6 {
        fill: #eac48c;
      }

      .cls-7 {
        fill: #7ab2d9;
      }

      .cls-8 {
        fill: #e2e3e5;
      }

      .cls-9 {
        fill: #8a664f;
      }

      .cls-10 {
        fill: #7cb4df;
      }

      .cls-11 {
        fill: #8d6750;
      }

      .cls-12 {
        fill: #4996c6;
      }

      .cls-13 {
        fill: #614032;
      }

      .cls-14 {
        fill: #6e4026;
      }

      .cls-15 {
        fill: #644233;
      }

      .cls-16 {
        fill: #7fb8e2;
      }

      .cls-17 {
        fill: #a8423b;
      }

      .cls-18 {
        fill: #2c6083;
      }

      .cls-19 {
        fill: #7ab4e0;
      }

      .cls-20 {
        fill: #74b0d4;
      }

      .cls-21 {
        fill: #b29a8a;
      }

      .cls-22 {
        fill: #bb793e;
      }

      .cls-23 {
        fill: #cb955a;
      }

      .cls-24 {
        fill: #835c40;
      }

      .cls-25 {
        fill: #0b6b89;
      }

      .cls-26 {
        fill: #7cb7df;
      }

      .cls-27 {
        fill: #a6958c;
      }

      .cls-28 {
        fill: #81b7df;
      }

      .cls-29 {
        fill: #7ab5e0;
      }

      .cls-30 {
        fill: #724227;
      }

      .cls-31 {
        fill: #7f4d2c;
      }

      .cls-32 {
        fill: #885f46;
      }

      .cls-33 {
        fill: #c17e3f;
      }

      .cls-34 {
        fill: #dcdee0;
      }

      .cls-35 {
        fill: #754629;
      }

      .cls-36 {
        fill: #ca5c4f;
      }

      .cls-37 {
        fill: #e4a95c;
      }

      .cls-38 {
        fill: #7fb9e3;
      }

      .cls-39 {
        fill: #7b4925;
      }

      .cls-40 {
        fill: #7cb5dd;
      }

      .cls-41 {
        fill: #77b4e0;
      }

      .cls-42 {
        fill: #7ab4df;
      }

      .cls-43 {
        fill: #764627;
      }

      .cls-44 {
        fill: #624031;
      }

      .cls-45 {
        fill: #7ab5d7;
      }

      .cls-46 {
        fill: #36a3ce;
      }

      .cls-47 {
        fill: #734326;
      }

      .cls-48 {
        fill: #75b4d6;
      }

      .cls-49 {
        fill: #f8f8f8;
      }

      .cls-50 {
        fill: #95674d;
      }

      .cls-51 {
        fill: #90664b;
      }

      .cls-52 {
        fill: #7bb7e0;
      }

      .cls-53 {
        fill: #1c1c1b;
      }

      .cls-54 {
        fill: #754528;
      }

      .cls-55 {
        fill: #fafaf9;
      }

      .cls-56 {
        fill: #724b39;
      }
    </style>
  </defs>
  <g id="Layer_1-2" data-name="Layer 1">
    <g>
      <g>
        <circle class="cls-25" cx="150.08" cy="161.19" r="129.79"/>
        <path d="m150.08,294.45c-35.59,0-69.06-13.86-94.23-39.03-25.17-25.17-39.03-58.63-39.03-94.23s13.86-69.06,39.03-94.23c25.17-25.17,58.63-39.03,94.23-39.03s69.06,13.86,94.23,39.03c25.17,25.17,39.03,58.63,39.03,94.23s-13.86,69.06-39.03,94.23c-25.17,25.17-58.63,39.03-94.23,39.03Zm0-259.57c-69.65,0-126.32,56.66-126.32,126.32s56.67,126.32,126.32,126.32,126.32-56.66,126.32-126.32-56.67-126.32-126.32-126.32Z"/>
      </g>
      <g>
        <g>
          <path d="m114.35,270.67c-.85,0-1.68-.15-2.46-.43-.63-.23-1.2-.34-1.8-.34-.63,0-1.31.12-2.15.38-.76.23-1.51.35-2.25.35-2.54,0-4.6-1.42-5.51-3.79-1.6-4.17-1.35-7.68.75-10.7,1.73-2.58,2-5.22.86-8.32-.36-.99-.61-1.96-.84-2.89-.19-.76-.37-1.48-.6-2.14-.43-1.24-.82-2.5-1.2-3.71-1.68-5.36-3.26-10.42-7.77-13.68-.69-.5-1.11-1.11-1.41-1.56-.09,0-.18,0-.27,0-2.7,0-4.09-2.06-4.83-3.17l-.06-.09c-2.07-3.07-3.58-6.55-4.62-10.63-4.01-.28-4.58-4.25-4.78-5.59-.03-.24-.07-.47-.11-.69-1.13-5.67-1.25-11.63-.36-17.75-.48-.25-.84-.55-1.11-.83-1.35-1.4-1.46-3.27-1.42-4.56.14-4.47,1.12-8.72,2.31-12.73-.74-.37-1.4-.91-1.85-1.71-1.01-1.82-.29-3.82.29-5.42.4-1.1.82-2.19,1.23-3.24.42-1.08.85-2.2,1.24-3.29,2-5.54,3.31-11.18,3.89-16.77-2.28-.74-3.78-2.35-5.03-3.69l-.07-.08c-2.62-2.81-4.76-6.14-6.35-9.92-2.96-.07-4.18-2.69-4.7-3.81-1.71-3.68-2.56-7.85-2.59-12.76-.02-3.37.5-6.8,1.56-10.2-1.59-.69-3.04-1.77-3.56-3.52-.38-1.26-.36-3.24,1.86-5.55,3.65-3.79,5.79-8.62,6.75-15.21l.1-.68c.82-5.66,1.68-11.51,3.98-17.09-1.92-1.9-4.25-4.52-5.51-8.13-4.37-12.5,5.32-28.09,13.99-32.51,1.27-.65,2.54-.97,3.79-.97,1.74,0,3.35.67,4.54,1.88,1.42,1.45,2.19,3.61,2.14,6.09-.01.75-.06,1.48-.11,2.18-.06.82-.11,1.62-.1,2.38,4.29-3.38,8.56-5.84,13.01-7.48,6.01-2.22,10.2-5.39,13.18-9.99,1.56-2.41,3.5-3.63,5.76-3.63h.15c1.5.04,2.54.64,3.27,1.41C130.66,2.13,136.52.1,142.99.03c.14,0,.29,0,.44-.01.24,0,.47-.01.71-.01,2.52,0,4.21,1.04,5.05,3.09.53,1.3.44,2.41.09,3.31.64-.04,1.27-.07,1.9-.07,2.83,0,5.41.44,7.91,1.35,2.82,1.03,3.67,2.9,3.88,4.29.08.52.08.99.01,1.42.94.25,1.9.6,2.84,1.08-.09-.29-.19-.57-.32-.86-.11-.25-.22-.5-.34-.75-.56-1.24-1.14-2.53-1.53-3.95-.6-2.18-.26-4.26.95-5.84,1.18-1.55,3.1-2.43,5.26-2.43.23,0,.47.01.72.03,1.93.16,3.59.94,4.96,1.67,12.39,6.64,17.66,20.04,13.1,33.35-.04.13-.09.25-.13.38-.01.04-.03.07-.04.11,3.36,4.25,5.54,9.1,7.49,13.71,2.1,4.97,4.54,8,7.92,9.84,1.5.82,2.44,1.9,2.81,3.22.15.53.23,1.25.05,2.08,3.08,2.45,5.32,5.13,6.84,8.18.05.1.1.2.16.31.52,1,1.39,2.67.79,4.55-.18.56-.46,1.06-.84,1.51,2.23,4.17,3.45,8.18,3.75,12.25v.16c.12,1.53.35,4.6-2.26,6.32.42,5.69-.69,11.06-3.32,15.98-.59,1.1-1.28,2.21-2.37,3.1.51.32,1.02.63,1.53.95,5.22,3.24,10.63,6.59,15.34,10.93,9.73,8.96,14.46,19.42,14.07,31.11-.42,12.63-8.76,23.02-19.47,24.36-2.52,4.52-5.96,8.28-10.23,11.18,4.61,7.75,5.23,15.84,1.86,24.06,0,.02-.01.03-.02.05,3.89.76,7.46,2.21,10.83,4.4,2.61,1.28,4.51,3.36,5.11,5.58.44,1.62.18,3.25-.74,4.59-1.3,1.9-3.05,4.45-5.83,5.31-1.06.33-2.11.81-3.23,1.32-1.5.69-3.06,1.4-4.81,1.82-8.99,2.16-18.74,3.59-29.79,4.35-.36.02-.73.04-1.11.04-.8,0-1.67-.05-2.74-.17-4.65-.5-7.51-3.22-8.27-7.85-.2-1.2-.18-2.36-.16-3.38.01-.76.02-1.47-.05-2.11-.17-1.08-.33-2.08-.66-2.94-.34-.9-.57-1.43-.72-1.73-.34.08-.89.25-1.82.59-.37.14-.75.26-1.13.37-.29.09-.57.18-.85.28-3.16,1.14-6.4,1.8-9.52,2.44-1.05.21-2.09.43-3.14.66-.89.2-1.02.38-1.19,1.09-.64,2.64-1.9,5.05-3.02,7.09l-.06.11-.07.11c-.18.26-.36.58-.55.92-.39.69-.82,1.48-1.48,2.21-1.16,1.3-1.29,1.73.02,3.41,2.03,2.61,2.8,5.58,2.16,8.37-.68,2.96-2.88,5.49-6.18,7.12-2.26,1.11-4.66,1.8-7.13,2.04-2.08.21-4.29.56-6.26,1.72-1.54.91-3.22,1.39-4.84,1.39-.96,0-1.9-.17-2.78-.5-.32-.12-.6-.17-.88-.17-.45,0-.97.15-1.68.48l-.11.05c-1.52.71-3.42,1.6-5.52,1.6Z"/>
          <path class="cls-46" d="m205.98,86.95l1.31.29c1.63-1.48.68-3.05-.05-4.42-1.45-2.72-3.02-5.39-4.91-7.85-.24-.31-1.03-.62-.14-1.11.06-.64.59-.6,1.02-.71.22-1-.43-1.62-1.03-2.22-.67-.67-1.26-1.52-2.06-1.94-5.56-2.97-7.46-8.46-9.68-13.75-2.1-5.02-4.42-9.93-7.46-14.46-.24-.35-.99-1.19-1.54-1.85-2.69-3.19-4.06-4.81-5.46-6.08-1.34-1.21-2.7-2.23-3.17-2.58-.13-.1-1.02-.87-1.92-1.36-3.54-1.92-7.05-3.94-10.98-5.02-.44-.12-1.12-.12-.62-.91.21-.44.55-1.05,1.13-1.64.83-.86,1.72-1.28,2.25-1.48-2.17-.29-4.88-.45-7.96-.17-2,.18-3.79.52-5.34.9.23-.57,1.23-.61.93-1.45-.34,0-.68.02-1.25.04,1.33-2.35,3.56-3.62,5.28-5.36-3.13-.98-6.11.14-9.1.77-2.61.55-5.12,1.55-7.47,2.87-.79.44-1.25.41-1.38-.58-.03-3.48,2.1-6.06,3.71-8.86-.91-.84-1.81-.15-2.63.13-4.79,1.64-8.89,4.33-12.41,8-.84.87-1.33,2.69-3.22,2.03-.23-.17-.34-.34-.4-.46-.14-.27-.19-.6.09-2.1.05-.26.09-.47.12-.62-.25-.02-.6-.01-.98.1-.74.23-1.17.75-1.27.87-3.5,4.19-8.2,6.45-13.08,8.54-3.89,1.67-7.59,3.73-11.2,5.92-1.01.61-2.52,1.03-2.13,2.79.47.58,1.14.76,1.82.84,5.15.65,5.7,4.17,5.51,8.02-.16,3.16-1.65,5.92-2.77,8.79-.36,2.98-2.21,5.18-3.9,7.46-1.76,2.37-3.98,4.32-6.1,6.35-2.4,2.29-3.87,5.04-4.35,8.34-.43,2.91-1.47,5.93-1.23,8.68.32,3.66-1.27,6.64-1.78,9.96-.21,1.37-.93,2.89,1.04,3.78.68.31.33,1.27.3,1.93-.19,3.41.42,6.74,1.13,10.02.28,1.29.26,3.32,2.75,2.95.95-.14.73,1,.85,1.6.73,3.55,2.31,6.71,4.48,9.55.74.97,1.39,2.88,3.38,1.26.58-.48.81.65,1.06,1.09,1.77,3.23,4.23,5.91,6.87,8.41,1.64,1.54,3.42,2.95,5.87,2.97.54,0,1.03.18,1.44.51,5.5,4.4,12.41,5,18.83,7.13-5.75.43-11.42,1.43-17.24.11-4.79-1.08-9.53.02-13.77,2.43-3.1,1.76-4.77,4.65-6.02,8.1-1.75,4.85-.58,9.68-.88,14.5-.13,2.08-.13,4.13,1.56,6.02,1.03,1.15.89,3.31,1.57,4.87.63,1.43.39,3.86,3.16,3.57.56-.06.58.76.79,1.2.85,1.79,1.47,3.71,2.8,5.25,1.02,1.18,1.95,2.41,3.76,2.46,1.12.03,1.72,1.07,2.51,1.73,2.18,1.83,3.97,4.52,7.52,3.31.37-.13.79.28,1.19.46,13.03,5.87,25.83,5.52,38.32-1.54,3.04-1.72,6.16-3.1,9.55-3.93,5.09-1.24,8.99-4.26,12.1-8.39.16-.21.14-.48.01-.73-.69-2.26-1.82-2.92-4.18-1.78-2.2,1.06-4.64,1.86-7.38,1.05,1.71-1.12,3.16-1.89,4.14-2.39,3.08-1.56,5.24-2.18,6.31-4.33.18-.36.28-.67.34-.86.03-.74-.03-1.78-.5-2.88-1.38-3.24-5.01-4.08-5.48-4.18-2.81-.64-5.3,1.01-8.41,1.17,1.99-2.67,4.61-3.52,7.35-4.01,0,0,1.73-.31,2.62-1.21.3-.3.39-.61.39-.61.04-.13.06-.27.09-.54.03-.23.04-.42.05-.55-.58-1.12-1.93-3.29-4.47-4.43-3.01-1.35-5.92-.57-8.52.34-5.16,1.81-8.7,4.89-11.56,7.59-1.29,1.22-2.29,2.31-2.97,3.09-.1-.33-.19-.77-.21-1.3-.02-.5.04-.92.11-1.24-.65-.06-1.6-.16-2.73-.29-6.58-.78-9.93-1.05-11.99-2.21-3.29-1.86-5.95-4.82-7.96-8.88,0-.01-.05-.19-.13-.44-.08-.24-.14-.42-.16-.47-.08-.22-.2-.59-.36-1.27.75.86,1.85,2.02,3.31,3.21,3.92,3.19,7.88,4.55,10.06,5.13,3.06.82,6.16,1.65,10,.67,1.56-.4,5.21-1.33,7.68-4.84,2.39-3.39,2.17-7.04,2.06-8.15-.17-1.35-1.38-1.08-2.18-1.3-3.4-.9-6.94-1.33-10.54-3,4.16-.83,8.1-.89,11.77-2.27,1.45-.54,2.97-.92,4-2.21,1.85-3.1,3.68-6.23,6.49-9.08-3.13.08-5.92.36-8.68.2-12.5-.72-21.14-7.6-27.63-17.71-2.48-3.86-4.21-8.12-5.87-12.38-1.71-4.39-2.03-4.48-5.4-1.3-.25.23-.49.47-.78.75-.13-4.33,4.23-8.02,8.49-7.29-1.93,2.64-1.95,2.67,1.18,4.49,6.71,3.91,14.14,5.01,21.7,5.12,13.06.19,25.64-1.89,37-8.9,1.85-1.14,3.58-2.43,4.91-4.17,2.23-2.91,2.19-5.89-.07-8.62,2.99-1.17,5.96.37,7.02,3.74-1.23-.16-1.94-1.54-3.39-1.27.16,5.77-3.07,9.43-7.83,11.98-1.66.89-2.55,2.12-3.05,3.9-1.31,4.65-1.44,9.35.55,13.7,2.42,5.29-.71,8.89-3.75,11.76-.76.71-2.95.64-1.82,2.68.87,1.56,2.19,2.66,3.99,2.25,1.78-.41,2.55-1.95,2.6-3.75.03-1.14-1.6-2.35-.35-3.32,1.6-1.24,3.25-2.54,5.41-2.86,3.71-.55,7.28.3,10.67,1.52,2.67.96,3.86.16,4.54-2.26.44-.92.86-1.91,1.26-2.99,1.01-2.74,1.55-5.28,1.84-7.46q1.1-.03,1.36,1.49.22,1.31,1.09,1.26c.58-3.01,1.05-6.98.84-11.62-.22-4.79-1.1-8.81-2-11.81Z"/>
          <path class="cls-25" d="m175.11,182.3c-2.94,2.29-4.74,5.86-8.63,7.14-1.95.64-3.87,1.43-5.87,1.88-3.88.86-6.95,3.38-10.46,4.98-11.85,5.42-23.6,5.34-35.3-.42-1.01-.5-1.11-.53-2.16.33-.5.41-.77-.03-1.14-.17-1.41-.51-2.49-1.52-3.68-2.38-1.57-1.15-2.2-3.27-5.02-3.18-1.09.03-1.48-1.02-3.77-4.59-1.63-2.55-1.93-3.04-2.1-3.98-.18-1.05-.1-2.09-.31-2.12-.31-.05-.51,2.15-1.18,2.23-.84.1-2.31-3.23-2.79-6.63-.31-2.19-.21-4.31-.63-4.36-.32-.04-.63,1.17-.89,1.12-.41-.08-.13-3.27-.12-3.39.47-4.8-.81-9.52.63-14.48.82-2.84,2.08-4.99,3.76-6.61,2.46-2.38,5.22-3.11,7.45-3.7,4.41-1.17,8.16-.68,10.28-.38,2.22.31,2.63.62,4.25.9,2.77.47,6.92.48,12.54-1.94-5.59-.7-18.3-3.13-28.59-13.46-3.1-3.11-5.36-6.33-7.02-9.2,0,.62-.1,1.88-.99,2.86-.13.14-.27.27-.4.38-3.31-3.45-5.44-7.51-6.21-12.31-.15-.96-.31-1.43-.32-1.74-.02-.48.01-.88-.13-.92-.14-.04-.33.31-.61.65-.29.36-.75.8-1.48,1.18-2.41-7.81-2.43-11.81-1.92-14.04.11-.48.57-2.29.09-2.53-.41-.2-1.31.77-2,1.61.09-1.58.37-3.88,1.24-6.52,1.04-3.11,2.84-6.43,2.6-6.56-.1-.06-.43.53-1.26.86-.33.13-.62.18-.79.19.7-11.65,4.27-16.95,7.61-19.62,1.97-1.57,6.67-4.47,7.62-9.62.22-1.17.19-2.18.12-2.86-1.84,2.93-4.07,5.47-7.07,7.29-3.23,1.95-6.41,2.17-9.65.08-.93-.6-1.93-1.1-2.9-1.64-1.13,1.53-1.25,3.36-1.54,5.13-.81,4.94-1.31,9.92-2.02,14.88-.63,4.33-1.86,8.41-4.69,11.89-.65.8-1.62,1.7-.65,2.94.67-.1,1.33-.2,2-.3.5,1.18-.24,2.15-.6,3.16-1.84,5.08-1.84,10.3-1.2,15.56.1.84.19,1.73.99,2.3.72-.67.79-1.85,1.8-2.29.67,4.29,1.44,8.56,3.75,12.33.96,1.57,1.74,3.38,3.76,3.99.25.03.66-.03.73.1,1.64,2.88,3.72,5.37,6.34,7.43,2.51,1.97,5.21,3.64,8.47,5.45-3.38.24-5.76-1.29-8.33-1.98-.97,1.56-.6,3.35-.81,5.03-.56,4.46-1.4,8.85-2.92,13.1-.38,1.07-1.16,2.22-.18,3.4.5.12.61.52.71.94.75,1.07.08,2.13-.2,3.08-1.1,3.79-1.5,7.72-2.51,11.52-.21.79-.53,1.67.21,2.42.47-.2.94-.41,1.42-.61.99.61.54,1.43.44,2.28-.5,4.35-1.07,8.71-.94,13.1.06,2.01-.16,4.16,1.35,5.87.33-.19.66-.38,1-.57,1.39,1.17.76,2.9,1.07,4.33,1.43,6.63,5.05,12,9.39,16.97,1.1,1.26,1.73,3.02,3.52,3.62h.15s.14-.04.14-.04c.62-.02.9.4,1.14.88,4.32,8.58,7.56,17.56,9.71,26.92.58,2.53.04,4.99-2.42,6.57-.29.24-.4.83-.21.84,2.32.06,2.94,2.04,4.04,3.53.72-.5.89-1.25,1.18-1.93,1.91-3.58,4.81-6.18,8.24-8.25.83-.5,2.37-.49,1.83-2.18-2.47-.37-2.84-.29-4.78.98,3.34-2.7,7.2-2.52,11.11-1.89.42.07-.36.34-.1.6,1.35,1.53,2.27-1.06,3.79-.35,1.04.49,2.54.01,3.83-.09,1.61-.12,2.9-1.94,2.69-3.52-.13-1-.81-1.25-1.65-1.28-1.3-.05-2.57.25-3.86.38-3.88.38-7.28-.46-10.85-2.37-3.29-1.76-4.09-3.33-3.5-6.94.76-4.57,2.03-6.81,6.66-7.54,7.4-1.18,14.34-.46,19.64,5.74.34.4.76.71,1.32.74,1.32-2.69,1.36-5.77,2.56-8.78,1.33,3.95,1.3,3.78,6.6,2.81,9.81-1.79,18.86-5.51,27.35-10.61,6.57-3.96,12.32-8.89,16.79-15.21.3-.42.59-.85.84-1.3.11-.21.12-.47.32-1.32-2.98,1.39-5.88,1.45-8.71,1.97-1.1.99-1.85,2.27-2.83,3.36-.37.42-.48,1.67-1.5.34-.43-.56-1.4.27-1.95.82-.92.91-1.62,2.03-2.59,2.89-.82.72-1.45,1.62-2.87,1.3-1.12-.25-1.75.93-2.54,1.56-1.38,1.08-2.5,2.74-4.68,1.94-.29-.11-.68.11-.96.31-3.21,2.21-6.89,2.83-10.62,3.68-8.53,1.94-16.6.77-24.57-2.3-1.8-.69-3.19-2.03-4.68-3.19-7.21.74-13.9-.72-19.98-4.74-1.15-.76-2.31-1.38-3.85-.96-1.34.36-2.54-.47-3.61-1.16-4.35-2.8-8-6.29-10.54-10.86-.87-1.57-3.01-1.81-3.69-3.65-.89-2.42-2.24-4.71-2.87-7.19-1.15-4.58-1.95-9.26-.74-14.04.11,5.97,1.68,11.57,3.85,17.26,1.32-1.13.69-2.66,2.15-3.89.94,9.57,6.56,15.62,14.2,20.87-.05-1.9-.91-3.05-.65-4.54,1.83,1.59,3.56,3.17,5.38,4.64,5.36,4.34,11.6,5.9,18.38,5.69.49-.02,1.12.11,1.31-.53.14-.5-.36-.72-.67-.99-.45-.38-.92-.74-1.9-1.53,4.31.55,8.02.91,11.7.21,8.96-1.7,17.28-4.78,23.95-11.34,1.14-1.12,2.61-1.66,3.97-2.39,2.45-1.33,4.84-2.75,6.1-5.39.58-1.21,1.29-2.5.29-3.86Z"/>
          <path class="cls-37" d="m187.5,122.54c.31,2.22.24,4.5-1.48,6.05-2.01,1.81-4.87,2.02-7.37,2.51-2.6.51-5.15-.51-6.27-3.43-.38-.99-1.08-.97-1.89-.59-1.33.62-2.66,1.25-3.64,2.4-4.84,5.58-6.74,12.06-5.94,19.36.11,1.02.21,2.07,1.08,2.82,2.38.35,4.78.52,6.94,1.8,3.98,2.36,5.33,6.03,3.66,10.32-.9,2.31,1.78,1.45,2.16,2.69.47-2.33.41-4.79,2.69-6.17,1.08-.65,2.27-.78,3.49-.44,3.06.85,5.09,4.79,4.1,7.92-.99,3.12-3.46,4-7.64,2.53.26,2.46.16,4.81-1.45,6.77-.53.64-.11,1.08.25,1.57.75,1.03,1.47,2.09,2.21,3.14,2.36-1.85,4.08-1.85,5.85,0,1.86,1.94,1.85,3.92-.03,6.16,1.79,2.32,4.36,2.55,6.99,2.63.24-.09.48-.21.66-.39,2.52-2.66,2.65-2.66,5.15.06,1.31.82,2.64.46,3.98.11,6.99-1.82,12.57-5.67,16.7-11.61,1.43-1.82,1.33-2.98-1.2-3.67-1.25-.34-2.31-1.36-3.46-2.07-.54.87.22,1.67.16,2.51-.11,1.56-.53,3-2.32,3.26-1.4.2-1.65-.95-1.82-2.03-.26-1.68.17-2.91,2.03-3.28.67-.13,1.4.02,2-.42-1.32-2.5-2.31-5.04-.75-7.81.44-.8-.22-1.01-.65-1.4-3.68-3.31-4.1-5.63-1.78-10.21.34-.67.56-1-.15-1.68-5.36-5.13-5.06-10.43.77-15.17.26-.21.49-.46.73-.69.23-1.54-.92-2.39-1.84-3.18-4.99-4.28-10.19-8.21-17.02-9.01-1.7-.2-3.27-.86-4.9-1.34Z"/>
          <path class="cls-46" d="m132.31,210.7c.61,2.48,2.87,3.19,4.76,3.96,6.88,2.81,14.11,4.07,21.45,2.81,4.8-.82,10.01-.97,13.93-4.49,1.2-1.07,1.28,1.07,2.31.36,1.13-.78,2.2-1.66,3.36-2.34.91-.54,1.29-3.12,3.29-1.21.11.1,1.94-1.69,3.03-2.51,1.35-1.01,1.35-3.63,4.39-2.82,1.07.28,2.87-2.38,3.27-4.45-6.66.52-12.86-1.02-18.62-4.34-3.02-1.74-4.87-1.64-7.48.78-8.09,7.47-17.75,11.14-28.61,11.77-2.18.13-2.93,2.64-5.09,2.48Z"/>
          <path class="cls-46" d="m146.37,232.45c-4.78-8.36-17.95-9.12-24.55-6.1-3.2,1.46-3.75,4.45-3.66,7.64.02.65-.02.98.05,1.46.05.34.46,2.96,2.67,4.64.19.15.39.22.54.37,3.7,3.48,8.15,3.63,12.8,2.95.6-.09,1.2-.25,1.79-.23.72.03,2.02-.83,1.98.58-.02.85-.08,2.11-.88,2.63-.35.23-.72.23-1.02.24-1.59.04-3.17.34-4.75.46-.71.05-1.74.15-3,.37-.19.02-3.87.46-4.07.48-.05,0-2.05.24-2.1.25-.43.28-1.09.71-1.87,1.25-2.03,1.4-1.89,1.45-5.98,4.74-1.25,1.01-2.13,1.77-2.39,3.03-.07.36-.06.77.07,1.24,3.55-3.82,5.52-3.55,8.19,1.12.24.42.54.82,1,1.51.49-1.41.77-2.56,1.27-3.61.84-1.75,1.98-3.43,4.15-3.43,2.01,0,3.22,1.48,4.12,3.13,1.79,3.29,2.42,3.66,6.05,2.49,2.37-.77,5.13-1.09,6.35-3.85-.3-2.29-1.82-3.89-3.39-5.29-1.26-1.12.44-.69.38-1.09-1.89-1.76-.74-3.35.25-4.98,2.34-3.82,5.04-7.47,5.98-11.99Z"/>
          <path class="cls-46" d="m209.48,142.61c-.16.26-.37.64-.51,1.14-.05.19-.13.52-.16,1.02-.03.59-.09,1.57.37,2.63.13.3.58,1.38,1.55,1.96.99.59,2.29.63,3.77.12,3.05-1.06,6.08-1.86,9.41-.12-1.65,1.15-3.44.94-5.04,1.35-4.79,1.23-7.06,3.22-7.44,6.71-.25,1.6,1.15,2,2.05,2.6,2.55,1.7,5.47,1.9,8.44,1.8,1.25-.04,2.52-.36,3.75.12-2.01,2.68-4.91,3.3-7.98,3.25-2.12-.03-3.32.62-3.26,2.88,2.32,2.98,6.63,3.76,10.72,1.99,2.36-1.03,4.09-2.76,5.59-5.03.21,2.61-1.72,4.23-2.15,6.38-.16.34-.33.68-.49,1.02.02.91.46,1.26,1.35,1.03,2.8-3.02,4.36-6.58,4.72-10.68-.93-2.71-.88-5.58-1.36-8.36-.59-3.42-1.53-6.71-3.28-9.72-.2-.35-.46-.85-.93-1.36-.43-.47-.87-.79-1.18-.99.34.69.82,1.93.86,3.55.03,1.25-.22,2.26-.44,2.92-.1-.47-.24-.97-.4-1.5-.09-.3-.19-.58-.3-.86-.4-1.02-1.43-3.27-3.81-5.05-.86-.65-3.34-2.45-6.8-2.25-3.25.19-5.48,2.04-6.15,2.59-.4.33-.71.64-.92.86Z"/>
          <path class="cls-46" d="m203.77,234.91c-.57-5.03.88-5.94,6.92-4.23.12-1.22-.15-2.56.88-3.51-2.28-1.33-4.73-.99-7.16-.74-.63.07-1.26.64-1.86-.07-.81-.13-1.43.46-2.39.74.71-1.95,2.61-2.28,3.62-3.52,2.07-4.75,3.45-9.64,3.21-14.91-.16-3.44-.82-6.8-1.29-10.19-1.85-1.29-1.42.87-2.09,1.38-1.65,5.61-5.48,9.89-8.91,14.38-1.35,1.77-2.91,3.42-4.55,4.93-3.59,3.31-4.22,7.52-3.88,12.07.21,2.78,1.78,4.43,4.41,5.04,3.82.89,7.71.65,11.58.55,1.01-.03,2.19-.37,1.53-1.94Z"/>
          <path class="cls-25" d="m203.77,234.91c-.03,1.19-.89,1.4-1.79,1.37-3.34-.09-6.69-.08-10-.42-3.77-.38-5.14-1.99-5.15-5.79-.01-3.84.58-7.39,3.69-10.29,5.06-4.7,8.98-10.36,12.56-16.26.48-.79.65-1.7.65-1.7.49-1.52.67-2.81.75-3.67-3.99,6.77-8.3,10.78-11.61,13.23-3.28,2.42-14.84,10.97-17.01,11.61-.14.04-.82.23-.99.72-.08.25.01.58.35,1.09,2.04,3.08,3.19,6.47,2.86,10.26-.06.68.08,1.38.15,2.06.36,3.65.91,4,4.54,3.89,6.41-.2,12.71-1.27,19.03-2.13,3.56-.48,3.56-.5,1.96-3.99Z"/>
          <path class="cls-1" d="m75.92,38.03c2.18-.72,4.12-2.16,6.87-2.33-2.21,1.87-4.84,2.55-6.61,4.45.38,4.25,3.07,6.64,6.68,8.28,1.67.17,2.29-1.27,3.23-2.17,1.02-.98,1.93-2.08,2.58-2.83-.84,1.81-3.78,2.88-3.6,5.83,2.85,1.88,5.9,2.81,9.33,2.02,2.34-2.87,3.81-6.1,3.87-9.84.02-1.06.09-2.26-.81-3.14-2.75-.32-5.43-.96-8.01-1.99-4.45-1.78-6.67-5.38-6.29-10.19.08-1.04.36-2.04.46-3.07.18-1.82-.38-2.93-2.5-2.33-1.79,1.52-3.91,2.75-4.64,5.22-.5,2.76-1.41,5.46-1.48,8.3-.03,1.35-.32,2.76.93,3.8Z"/>
          <path class="cls-36" d="m139.29,123.31c5.68,3.33,10.81,4.49,14.01,4.95,0,0,8.88,1.27,15.32-2.14,1.03-.55,2.18-1.33,2.41-2.53.08-.44.22-1.59-1.88-3.84-3.92-4.21-8.63-6.63-14.54-5.78-2.61.38-2.79,1.05-1.18,3.05.27.34.59.66.76,1.04.19.42.66,1.02.05,1.31-.27.13-.85-.4-1.3-.64-4.03-1.89-8.04-1.97-11.86.44-1.37.87-3.11,1.93-1.8,4.13Z"/>
          <path class="cls-33" d="m191.48,190.17c-2.61-.13-4.94-1.16-7.25-2.23-2.59.72-4.54-.11-5.9-2.66-.9,2.29-2.1,4.18-3.89,5.58-1.47,1.15-1.05,1.78.35,2.5,9.87,5.1,19.79,5.68,29.6.04,5.96-3.42,10.6-8.21,13.3-14.66-2.96,2.59-5.64,5.49-8.99,7.66-2.8,1.81-5.92,2.67-9.05,3.58-.83.24-1.7.3-2.51-.18-.42.22-.52.65-.73,1.02-1.29,2.22-2.41,2.29-4.03.25-.27-.34-.51-.7-.91-.89Z"/>
          <path class="cls-56" d="m169.05,6.62c-.77,1.31.29,2.32.71,3.33,1.76,4.23,2.84,8.37-.39,12.41-.8,1-.04,1.35.68,1.7,4.89,2.36,8.8,5.96,12.67,9.93,1.44-1.75,1.76-3.78,1.78-5.92-.47.56-.97.31-1.48.07-2.7-.83-4.68-3.04-6.84-3.57,1.44.74,3.55,1.52,5.3,2.98.63.52,1.35.78,2.09.12.99-2.82-.64-5.26-1.14-7.87-3.31-1.44-6.78-1.07-10.26-.97,2.64-1.54,5.51-1.31,8.36-1.21.15-.22.31-.5.2-.71-2.53-4.96-5.93-8.95-11.67-10.29Z"/>
          <path class="cls-29" d="m180.89,38.84c1.82,2.59,2.97,4.62,4.28,6.96,3.34,5.94,4.55,9.05,5.62,11.61.75,1.79,1.47,3.71,2.25,6.01.41,1.22,1.37,1.95,2.34,2.68,2.83,2.11,5.64,4.25,7.84,7.06,1.37.43,2.74.87,4.49,1.42-3.15-5.52-8.64-7.8-13.38-11.38,1.68-.27,2.92.57,4.44-.04-5-3.43-6.97-8.74-9.29-13.83-4.16-9.14-9.73-17.12-18.64-22.22-3.57-2.05-7.22-4.09-11.55-4.11-.39.17-1.08.29-1.11.51-.03.16,0,.29.05.38.21.39.85.43,1,.45,1.45.13,6.79,2.12,9.1,3.23,2.16,1.03,3.7,2.24,5.46,3.63.76.6,1.89,1.5,3.21,2.83.63.63,1.91,1.98,3.89,4.81Z"/>
          <path class="cls-28" d="m228,143.21c.74,1.17,3.12,5.11,4.49,10.87.83,3.5,1.03,6.54,1.02,8.77-.05,1.34-.09,2.68-.14,4.02.89-3.28,1.7-8.19.68-13.85-.25-1.4-.77-3.79-1.95-6.55-1.6-3.71-3.88-6.8-6.72-9.96-5.92-6.59-13.48-10.99-20.72-15.83-1.17-.78-1.49-.15-1.82.77.76,1.24,2.11,1.75,3.25,2.46,5.35,3.33,9.99,7.58,14.98,11.36,2.1,1.78,4.66,4.37,6.92,7.97Z"/>
          <path class="cls-22" d="m161.99,151.65c-1.38-7.32-.28-14.12,4.1-20.28.38-.54.51-1.26.76-1.89-7.29,5.71-10.8,13.46-12.09,22.4-.16,1.13.23,1.65,1.44,1.08,1.83-.86,3.84-.95,5.79-1.3Z"/>
          <path class="cls-46" d="m69.02,91.45c-.15-.76.23-1.35.7-1.86,3.84-4.23,5.06-9.5,5.66-14.92.67-6.05,1.67-12.04,2.55-18.05-1.09-1.14-1.23.03-1.46.66-1.22,3.24-1.92,6.61-2.4,10.03-.59,4.18-.99,8.38-2.26,12.44-1.36,4.32-3.23,8.34-6.77,11.72,1.58.65,2.79.25,3.99-.02Z"/>
          <path class="cls-17" d="m139.29,123.31c.21-2.63,2.28-4.26,5.81-5.05,2.71-.6,5.22.68,7.85.48-4.33-4.97-13.29-6.17-18.58-2.59-1.68,1.14-1.75,2.14-.25,3.37,1.65,1.36,3.24,2.81,5.17,3.79Z"/>
          <path class="cls-38" d="m93.68,33.78c2.87-2.98,5.55-4.79,7.41-5.87,2.23-1.3,2.36-1.48,9.09-4.35,3.81-1.63,7.04-3.98,9.67-7.17.45-.55.83-1.14,1.68-.76.14-.64.26-1.36.32-2.16.11-1.34.04-2.53-.09-3.5-.19.37-.49.94-.89,1.59-.85,1.39-4,7.48-15.27,11.86-4.84,1.88-9.27,4.58-13.24,7.98-.3.26-.97.78-.87,1.3.14.75,1.77,1.01,2.19,1.07Z"/>
          <path class="cls-46" d="m98.27,221.66c-1.65-3.04-4.16-5.44-6.28-8.12-3.83-4.83-5.57-10.34-6.55-16.23-.2-1.2-.21-1.2-1.14-.57-.02,5.47.56,10.84,2.73,15.93.5,1.16,1.17,2.24,1.74,3.33,1.23-.35.96-1.62,1.97-2.04,1.84,3.58,3.84,7.11,7.06,9.77.74-.69.3-1.43.48-2.06Z"/>
          <path class="cls-25" d="m155.66,138.92c-5.53,2.49-11.47,3.18-18.06,3.95,4.98,3.19,10.22,3.31,15.01,4.83,1.02-2.93,2.03-5.85,3.05-8.78Z"/>
          <path class="cls-46" d="m107,255.99c2.28-.04,2.7-1.89,3.16-3.48.84-2.91-.52-5.66-1.28-8.31-1.73-6.02-3.83-11.95-6.41-17.68-.75-1.66-1.67-3.21-2.75-4.68-.3-.41-.63-.92-1.16-.22,2.54,5.44,4.61,11.07,6.52,16.76,1.18,3.5,2,7.13,2.86,10.73.57,2.38.62,4.76-.94,6.89Z"/>
          <path class="cls-2" d="m143.66,165.54c-.36.53-.86,1.44-.74,2.23.02.11.06.38.2.41.21.05.51-.5.56-.6.59-1.05,4.01-3.61,5.63-4.91,3.45-2.77,7.08-5.11,11.65-5.72,3.28-.44,5.05.48,5.6.77.55.29,2.23,1.21,3.23,3.18.28.54.43,1.03.52,1.38.12-.61.51-2.97-.92-4.91-.34-.46-1.23-1.51-3.48-2.17-4.51-1.33-9.21.59-11.02,1.37-5.62,2.41-9.22,6.32-11.23,8.99Z"/>
          <path class="cls-6" d="m187.5,122.54c.64,1.36,1.9,1.52,3.18,1.68,8.53,1.05,15.15,5.41,20.58,11.85.39-.25.98-.71,1.01-1.34.02-.4-.19-.72-.26-.83-4.37-6.53-13.92-10.24-13.92-10.24-2.89-1.12-6-1.83-9.36-2.07-.75-.05-1.72-.54-1.24.95Z"/>
          <path class="cls-42" d="m120.77,153.54c-.43-.63-.85-1.26-1.28-1.88-.39,2.59,1.94,7.05,5.1,9.53,5.42,4.25,11.57,5.34,18.23,4.03.36-.9.62-1.66-.89-1.6-1.62.06-3.27.1-4.88-.07-7.01-.73-12.4-4.15-16.29-10Z"/>
          <path class="cls-3" d="m80.99,21.25c2.14-.71,2.37.26,1.91,2.06-1.09,4.23-.86,8.41,2.62,11.38,3.32,2.84,7.32,4.49,11.93,3.61-.61-1.33-1.94-1.32-3.08-1.59-7.58-1.81-10.51-5.9-9.74-13.66,0-.09.04-.17.04-.26-.11-1.31.89-3.04-.65-3.8-1.59-.79-2.6.8-3.66,1.74-.07.52.13.71.64.52Z"/>
          <path class="cls-46" d="m70.2,112.16c-.96-6.49-1.15-12.92,1.39-19.18.61-1.49.41-1.63-.58-1.83-2.23,4.55-4.37,9.09-4.54,14.32-.12,3.55.54,6.95,1.76,10.56.65-1.29,1.31-2.58,1.96-3.87Z"/>
          <path class="cls-25" d="m228.61,171.41c2.43-2.65,2.97-4.15,2.86-8.44-4.41,6.83-9.69,9.84-17.02,5.1-.08,3.28,2.88,5.48,6.87,5.37,2.63-.07,4.85-1.39,7.28-2.03Z"/>
          <path class="cls-44" d="m84.29,48.55c-1.15-.45-3.25-1.43-5.17-3.5-1.72-1.85-2.55-3.77-2.95-4.9-.84.32-1.68.64-2.53.96-.46.18-.92.35-1.38.53.02,1.04.19,2.6.93,4.32.21.48,1.15,2.24,2.97,4.1.89.91,1.69,1.95,3.1,2.07,1.08-.68,2.19-1.44,3.33-2.27.59-.43,1.15-.87,1.7-1.3Z"/>
          <path class="cls-15" d="m94.39,51.27c-3.16-.54-6.42-.7-9.26-2.46-.87.38-1.96.98-3.09,1.89-.77.63-1.38,1.26-1.85,1.83,1.08,1.04,2.48,2.19,4.24,3.25.86.52,1.69.94,2.47,1.29,3.52-.62,5.44-3.29,7.48-5.81Z"/>
          <path class="cls-46" d="m83.3,197.3c-1.3-6.44-.16-12.85.29-19.27.07-.95.43-2-1.14-1.99.18,2.01-.77,3.8-1.11,5.71-1.19,6.68-1.86,13.34-.33,20.61.91-2,1.6-3.53,2.3-5.05Z"/>
          <path class="cls-47" d="m176.45,165.58c.33,2.44,2.59,4.54,4.68,4.34,1.75-.17,3.31-2.42,3.11-4.47-.25-2.53-2.94-4.94-5.07-4.55-1.79.32-3.02,2.45-2.71,4.69Z"/>
          <path class="cls-52" d="m205.68,198.5c-.88.9-.43,1.98-.26,2.94,1.96,11.29,1.01,16.46-2.06,21.12-.52.78-1.7,2.36-1.51,2.52.15.13,1.14-.76,1.92-1.48,6.13-7.11,6.96-18,1.92-25.09Z"/>
          <path class="cls-19" d="m121.55,17.91c-.11.33-.27.94-.16,1.68.06.39.18.71.29.95,5.2-5.65,10.7-10.79,18.42-12.49.2-.33.48-.72.84-1.11.57-.61,1.15-1.01,1.61-1.27-2.21.13-5.14.56-8.32,1.83-7.09,2.82-11.05,8-12.67,10.41Z"/>
          <path class="cls-46" d="m82.82,158.7c.84-2.95,1.8-5.88,2.49-8.86.96-4.15,1.78-8.35,1.42-12.66-.64-.43-1.36-.79-1.47.37-.77,8.35-3.17,16.27-6.6,24.47,1.87-1.1,3.17-2.01,4.17-3.31Z"/>
          <path class="cls-10" d="m205.98,86.95c-.23-.05-.57-.08-.71.1-.25.31.27,1.11.38,1.29.97,1.55,1.47,4.58,1.85,6.92,0,0,.45,2.77-.34,8.78-.21,1.61-.53,3.42-.53,3.42,0,0,0,0,0,0-.32,1.55-.62,2.53-.18,2.86.2.15.47.11.68.06.97-1.95,2.18-5.03,2.46-8.94.51-7.08-2.35-12.41-3.61-14.48Z"/>
          <path class="cls-26" d="m136.38,16.9c-.25.3-.61.83-.82,1.56-.12.44-.15.83-.15,1.13,5.83-3.74,12.25-5.16,18.91-5.74.52-.27,1.04-.55,2.21-1.17-7.84-1.64-14.31-.28-20.15,4.22Z"/>
          <path class="cls-46" d="m222.14,136.18c-3.16-3.23-7.11-6.76-11.94-10.14-2.54-1.78-5.01-3.31-7.35-4.61-1.01.62-.55,1.05.18,1.46,4.9,2.75,9.02,6.37,12.24,10.98.26.37.43.44.6.57,1.18.88,2.31.59,4.01.94.55.11,1.34.34,2.27.8Z"/>
          <path class="cls-46" d="m79.51,126.19c-3.97-4.24-5.63-9.53-6.79-15.04-.11-.51-.17-1.03-.72-1.28-.83,7.97,1.62,14.72,8.12,20.85l-.61-4.53Z"/>
          <path class="cls-46" d="m81.03,176.65c1.14-5.42,2.29-10.84,3.4-16.27.09-.46.41-1.13-.42-1.3-.12-.02-.32.36-.49.56-2.18,5.96-4.36,11.91-5.33,18.22-.06.41-.12.84.3,1.21,1.2-.42,1.7-1.59,2.53-2.42Z"/>
          <path class="cls-7" d="m208.81,144.86c.58-1.2,1.29-1.93,1.84-2.37,3.9-3.17,11.38-1.45,15.22,2.65.8.85,1.31,1.67,1.59,2.18-.17-.55-2.7-8.54-8.8-9.72-1.99-.39-3.72.13-3.97.2-2.46.74-4.7,2.71-5.54,5.27-.23.72-.31,1.35-.34,1.79Z"/>
          <path class="cls-40" d="m203.22,73.16c-.74.01-1.51.05-2.3.1-.21.02-.42.03-.63.05,1.06,1.37,2.06,2.75,3,4.15,1.78,2.64,2.31,3.25,2.65,4.29.32.99.67,2.73.04,5.19.68.3,1.45.71,2.24,1.28,1.63,1.16,2.69,2.49,3.34,3.47-.42-2.45-1.18-5.51-2.58-8.84-1.77-4.22-3.97-7.45-5.77-9.69Z"/>
          <path class="cls-3" d="m88.48,56.77c-1.42-.46-3.12-1.13-4.94-2.13-1.72-.94-3.12-1.95-4.23-2.86-1.66-1.36-2.58-2.01-3.63-3.23-1.72-2.01-2.33-3.53-3.03-5.32-.19-.49-.2-.65-.38-1.59-.39.19-.86.42-1.38.76.41,1.84.98,3.26,1.43,4.21.49,1.05,4.65,9.58,12.33,10.4.98.1,2.28.11,3.84-.24Z"/>
          <path class="cls-13" d="m75.92,38.03c-.65-3.71-.01-7.29,1.13-10.8.16-.51.48-.93-.15-1.29-4.18,3.33-4.94,8.13-5.55,12.98-.07.53.22.99.69,1.3,1.3-.73,2.59-1.46,3.89-2.19Z"/>
          <path class="cls-27" d="m169.05,6.62c4.94,2.5,9.11,5.81,11.47,11,.77.35,1.54.69,2.91,1.31-2.9-6.16-6.81-10.38-12.64-12.68-.61-.24-1.34-.54-1.74.37Z"/>
          <path class="cls-11" d="m123.99,261.51c.08.83.42,1.2.6,1.36,1.12.96,3.74.15,4.6-1.52.32-.62.34-1.21.32-1.52-.14-1.78-1.12-3.38-3.06-3.69-1.15-.18-2.73,3.36-2.46,5.37Z"/>
          <path class="cls-51" d="m210.76,237.76c.66-.12,2.05-.36,2.25-1.16.24-.91-.9-1.96-1.5-2.49-1.63-1.45-4.36-2.7-5.21-1.84-.55.56-.15,1.89.28,3.35.19.65.52,1.25,1.19,1.72,1.06.76,2.32.53,2.98.42Z"/>
          <path class="cls-41" d="m149.04,19.21c-.3.16-.89.54-1.31,1.26-.21.36-.32.71-.37.97.9-.24,2.04-.5,3.37-.73.31-.05,1.57-.26,3.27-.41,3.15-.28,6.17-.21,8.01-.13.5-.17,1.06-.41,1.04-.65-.04-.55-2.98-.75-3.98-.82-2.33-.16-5.71-.19-10.03.52Z"/>
          <path class="cls-50" d="m118.48,262.79c.26-.57.27-1.11.19-1.55-.27-1.44-.84-3.18-2.81-3.2-1.2-.01-2.9,3.63-2.67,5.24.05.34.16.67.45.94,1.07,1.01,4.03.32,4.83-1.43Z"/>
          <path class="cls-32" d="m219.5,234.14c.26-.6-.24-1.44-.76-2.03-1.14-1.3-2.54-2.25-4.23-2.77-1.55-.48-1.8.14-1.48,1.5.14.61.76,3.08,3,3.84,1.29.44,3.1.3,3.47-.54Z"/>
          <path class="cls-3" d="m72.03,40.22c-.37-5.44,1.45-10.13,4.86-14.28.54-.74,1.16-1.53,1.85-2.33.76-.88,1.52-1.67,2.24-2.36-.21-.17-.42-.35-.64-.52-6.02,4.72-8.84,11.13-9.74,18.54-.14,1.18-.02,2.08,1.42.95Z"/>
          <path class="cls-25" d="m225.7,161.95c-1.95-1.11-4.11-.61-6.18-.8-3.16-.3-5.99-1.16-8.07-3.72-.03,3.09,1.29,4.6,4.47,5.21,3.33.64,6.51-.66,9.78-.69Z"/>
          <path class="cls-43" d="m179.44,184c.27,2.13,1.53,2.99,3.24,2.93,1.22-.04,2.01-.88,1.81-2.31-.27-1.89-1.89-3.35-3.49-3.1-1.67.26-1.73,1.41-1.56,2.48Z"/>
          <path class="cls-45" d="m202.43,226.18c-1.9.6-2.31.83-2.29.93.03.12.93.03,2.74-.16,3.63-.37,3.94-.41,4.46-.41,1,0,2.44.09,4.21.63,1.54-.48,2.99.41,4.51.19-1.04-.65-2.48-1.37-4.28-1.82-4.23-1.06-7.8.04-9.36.64Z"/>
          <path class="cls-46" d="m229.47,173.46c-.58-.17-1.02-.52-1.35-1.03-1.5,1.54-2.98,3.09-5.26,3.45-1.5.24-1.4,1.47-1.77,2.86,3.8-.6,6.31-2.57,8.38-5.28Z"/>
          <path class="cls-9" d="m109.36,263.12c.11-.31.16-.65-.07-1.25-.41-1.06-.6-3.08-2.16-2.54-1.39.48-1.83,2.33-1.76,3.94.02.42.11.72.37.96.84.79,3.18.16,3.62-1.1Z"/>
          <path class="cls-16" d="m204.69,107.63c-.67,1.73-1.13,3.17-1.42,4.16-.76,2.59-.92,3.91-1.77,5.48-.56,1.04-1.33,2.34-1.33,2.34-.26.45-.48.81-.63,1.05.31-.1.78-.28,1.28-.61.54-.36,2.1-1.53,3.19-6.95.27-1.33.57-3.2.67-5.48Z"/>
          <path class="cls-21" d="m182.89,28.28c-.56,4.6-.42,5.65-.17,5.7.34.07,1.03-1.62,1.35-2.73.38-1.3.44-2.43.43-3.2.09-1.18.13-2.18.1-2.93-.03-.97-.12-1.95-.27-2.92-.19-1.21-.66-2.09-1.91-2.42-.17-.07-.38-.16-.62-.25-.5-.2-.52-.2-.54-.18-.24.14.71,1.57,1.2,3.53.44,1.77.44,3.67.44,4.91,0,.2,0,.37,0,.48Z"/>
          <path class="cls-20" d="m166.94,166.78c.78.09,2.67.42,4.36,1.92,2.64,2.33,2.69,5.61,2.69,6.15.12-.25,1.43-2.94.03-5.45-1.26-2.28-4.21-3.44-7.08-2.61Z"/>
          <path class="cls-48" d="m140.13,249.42c-.63-.15-1.25-.3-2.22-.53,1.87,2.47,3.55,4.69,5.24,6.91.71-2.94-1.44-4.52-3.01-6.38Z"/>
          <path class="cls-23" d="m186.04,125.97c.35-1.91.13-3.41-.51-3.65-.24-.09-.61-.04-.65-.02-2.66.75-.58,3.15-1.47,4.57-.16.25.39.6.77.67.61.12,1.36-.49,1.85-1.57Z"/>
          <path class="cls-24" d="m219.4,228.31c-.08.29-.2.5-.14.59.71,1.2,1.16,2.66,2.82,2.92.1.02.41-.4.37-.52-.53-1.47-1.5-2.5-3.04-2.99Z"/>
          <path class="cls-55" d="m143.02,84.02c.09-.33.19-.66.28-.99-.77-.83-1.76-.52-2.68-.47-.96.05-1.89,0-2.77-.45-4.73-2.37-6.06-11.04-2.24-14.72,1.88-1.81,5.68-.81,7.97.76,2.6,1.78,3.31,4.47,3.47,5.17.09-3.41-.66-5.99-1.24-7.51-.25-.67-3.87-9.81-11.61-11.09-1.94-.32-3.67-.07-4.69.17-2.54.59-4.75,2-6.76,3.99-6.35,6.28-5.69,20.25,1.72,25.87,4.77,3.62,12.3,4.82,18.53-.73Z"/>
          <path d="m145.51,81.19c-.49.63-4.79,6.02-12.12,5.97-.64,0-6.98-.15-11.32-5.27-5.83-6.87-2.4-16.01-1.96-17.18.59-1.57,2.11-5.49,6-7.76,1.37-.8,2.95-1.34,4.76-1.56,5.52-.67,9.63,2.02,12.69,6.45.23.34.78,1.15,1.37,2.33,1.69,3.42,2.1,6.72,2.13,9.15-.05-.18-.12-.44-.21-.74-.65-2.02-1.62-3.39-1.9-3.76-.99-1.35-2.29-3.12-4.58-3.63-.8-.18-1.64-.19-2.51-.03-2.58.49-4.44,2.66-5.05,5.91-.44,2.34-.29,4.65.63,6.86.43,1.05,1.23,2.88,3.16,4.28.46.33,3.29,2.39,6,1.43.99-.35,1.73-1.03,1.85-1.13.72-.66,1.07-1.34,1.47-2.15.04-.08.61-1.36,1-2.71,1.83-6.31-.01-11.65-.43-12.8-1-2.76-2.66-5.34-5.04-7.69-6.08-6.01-15.28-5.14-20.33,1.75-5.14,7.01-5.85,19.05,1.41,25.25,3.68,3.14,9.63,5,15.29,3.03,4.35-1.51,6.79-4.67,7.7-6.01Z"/>
          <path d="m112.91,51.2c.94-.18,1.34-1.03,1.92-1.61,4.57-4.62,10.01-7.54,16.43-8.62,2.65-.45,3.06-1.17,2.13-3.64-1.17-3.12-3.61-4.57-6.89-4.1-7.94,1.13-15.16,10.65-13.59,17.98Z"/>
          <path d="m177.12,35.18c-1.74-1.72-4.18-4.13-8.04-4.99-1.39-.31-2.55-.39-3.99-.06-2.65.61-4.8,4.38-3.8,6.88.31.76.83,1.01,1.61.95,6.52-.51,12.47.97,17.67,5.07.1.08.32.01.53.02,0-.48-.03-1.18-.2-1.99-.11-.53-.65-2.77-3.79-5.87Z"/>
          <path d="m181.04,53.45c-2.85-3.6-6.55-5.65-11.36-4.64-1.4.29-2.59.8-3.59,1.49-3.17,2.17-4.19,5.62-4.59,7.01-.73,2.54-.75,5.5-.75,6.11h0c0,.37.02,3.1.76,5.71,1.28,4.48,4.39,7.57,4.39,7.57,1.11,1.1,2.57,2.56,5.05,3.36,3.06.99,5.66.32,6.55.09,4.77-1.23,7.4-4.59,8.1-9.41.92-6.39-.56-12.23-4.56-17.29Zm1.43,19.67c-2.49,5.47-8.84,7.3-13.88,3.99-.79-.51-1.49-1.22-2.55-1.08-.03.02-.06.04-.07.06,0-.04,0-.07-.02-.11.29-.63.06-1.19-.27-1.71-1.54-2.51-2.66-5.18-3.08-8.12-.08-.6-.33-1.16-.94-1.46,1.07-.71.79-1.99.96-3.02.45-2.87,1.35-5.51,3.35-7.7,2.83-3.09,7.05-3.63,10.55-1.34,6.21,4.06,9.02,13.75,5.94,20.48Z"/>
          <path class="cls-53" d="m160.83,62.17c-.04.42-.06.84-.06,1.26-.03-.41.03-.83.06-1.26Z"/>
          <path class="cls-53" d="m166.04,76.62c-.1-.07-.17-.15-.19-.21.06.07.13.14.19.21Z"/>
          <path d="m148.36,89.23c2.48,4.14,9.93,3.71,14.42,1.86,1.34-.55,6.11-2.51,6.69-6.52.24-1.66-.25-3.51-1.32-4.81-4.04-4.93-16.76-3.23-19.79,2.71-.99,1.94-1.24,4.69,0,6.75Z"/>
          <path d="m122.18,248.18c2.06-.24,4.11-.49,6.17-.73.19-.21,1.14-.35.29-.69-3.79-1.49-9.53-1.15-12.48,2.85,2.16-.61,4.02-1.41,6.03-1.43Z"/>
          <path d="m190.77,175.18c.44,3.46,2.87,5.74,5.76,5.39,2.84-.34,4.91-3.39,4.46-6.56-.47-3.32-3.35-5.82-6.19-5.38-2.74.42-4.45,3.21-4.03,6.56Z"/>
          <path d="m165.68,142.78c.42,2.97,2.85,5.15,5.4,4.84,2.75-.33,4.94-3.63,4.55-6.87-.39-3.24-2.93-5.44-5.74-4.98-2.83.46-4.7,3.57-4.21,7.01Z"/>
          <path d="m182.24,147.27c.51,3.38,3.48,5.87,6.44,5.39,2.61-.42,4.27-2.9,3.89-5.81-.44-3.39-3.66-6.2-6.53-5.71-2.62.45-4.25,3.08-3.8,6.12Z"/>
          <path d="m194.65,133.99c.53,3.58,3.46,6.14,6.45,5.64,2.38-.4,3.77-2.67,3.39-5.51-.45-3.35-3.67-6.14-6.54-5.64-2.41.42-3.74,2.63-3.31,5.52Z"/>
          <path d="m208.15,158.33c-.4-2.88-2.95-5.14-5.44-4.82-2.64.34-4.4,3.04-3.92,6.03.48,2.98,2.87,5.07,5.46,4.77,2.71-.32,4.34-2.82,3.9-5.97Z"/>
          <path d="m213.09,173.04c-3.35-.84-5.37.84-4.84,4,.24,1.41.92,2.46,2.42,2.61,1.39.13,2.21-.79,2.77-1.94.8-1.64.26-3.18-.4-4.71,0,0,.05.04.05.04Z"/>
          <path d="m191.48,190.17c.31,1.76,1.12,3.19,3.09,3.05,1.94-.14,2.67-1.57,2.58-3.42-.55-1.35-1.32-2.4-2.99-2.29-1.68.11-2.2,1.37-2.69,2.67Z"/>
          <path d="m79.3,51.78c-.24.35-.16.83.17,1.09.33.27.83.22,1.12-.1.82-.66,1.65-1.36,2.49-2.1.71-.62,1.4-1.24,2.06-1.86,1.93-2.16,3.86-4.32,5.79-6.48-.31-.24-.62-.49-.92-.73-2.29,2.84-5.12,5.81-8.63,8.6-.7.55-1.39,1.08-2.08,1.58Z"/>
          <path d="m183.07,28.21c-.04-.14-.1-.28-.17-.4-2.8-1.73-5.41-3.88-8.94-3.93,2.84,1.57,5.83,2.85,8.33,5,.78.67.68-.24.78-.67Z"/>
          <path class="cls-8" d="m141.45,67.5c-.82.43-1.3,1.06-1.11,2.04.19.98.81,1.57,1.78,1.34.92-.21,1.41-.99,1.16-1.95-.23-.86-.78-1.5-1.83-1.44Z"/>
          <path class="cls-49" d="m161.67,64.7c.12,1.47.45,3.57,1.41,5.92.97,2.38,2.21,4.14,3.16,5.28.56.66,3.05,3.45,6.95,3.68,2.18.13,3.92-.6,4.59-.9,4.48-1.99,6.38-5.86,6.58-10.62.24-5.63-1.45-10.6-5.5-14.56-4.98-4.86-11.91-3.67-15.18,2.45-1.46,2.74-1.92,5.69-2,8.74Z"/>
          <path class="cls-18" d="m164.23,86.42c.67-.63,1.19-1.34,2.4-1.05,1.45.35,1.96-.58,1.9-1.97-.05-1.04-.4-1.85-.61-2.22-.9-1.59-2.43-2.28-3.19-2.62-2.62-1.16-5.1-.82-6.69-.59-1.7.25-4.54.67-6.93,2.95-1.03.99-1.66,2.02-2.03,2.74-.08.32-.17.85.06,1.36.21.48.64.64,1.76,1.25,1.27.68,1.22.71,1.63.9,1.2.57,3.77,1.38,6.85.96,2.17-.29,3.83-1.09,4.87-1.71Z"/>
          <path class="cls-4" d="m164.23,86.42c-1.71.63-3.17.88-4.14.99-.57.07-8.58.91-10.69-2.96-.18-.33-.28-.63-.33-.79-.41.94-.49,1.75-.5,2.24-.02.71-.04,1.62.57,2.32.14.16.33.38.65.49.8.28,1.46-.36,2.28-.67,1.6-.61,2.56.55,3.62,1.36,3.62,2.77,7.49,1.42,8.54-2.98Z"/>
          <path class="cls-35" d="m199.64,174.2c-.42-2.84-2.24-4.43-4.64-4.04-2.04.33-3.4,2.35-3.12,4.62.34,2.78,2.24,4.51,4.58,4.16,2.26-.33,3.55-2.25,3.18-4.75Z"/>
          <path class="cls-14" d="m167.05,142.58c.33,2.21,2.1,3.85,3.93,3.63,2.29-.28,3.62-2.51,3.2-5.33-.37-2.43-2.2-4.2-4.04-3.88-1.95.33-3.46,3.07-3.09,5.59Z"/>
          <path class="cls-30" d="m191.24,146.9c-.36-2.87-2.3-4.66-4.72-4.36-2.01.26-3.39,2.27-3.11,4.56.32,2.65,2.28,4.4,4.64,4.15,2.33-.24,3.5-1.84,3.19-4.35Z"/>
          <path class="cls-5" d="m203.09,133.92c-.38-2.73-2.28-4.35-4.67-4-1.71.25-2.9,2.25-2.58,4.34.36,2.42,2.45,4.15,4.6,3.8,2.11-.34,3-1.72,2.66-4.14Z"/>
          <path class="cls-54" d="m200.2,159.46c.33,2.24,2.14,3.97,3.85,3.69,1.93-.32,3.22-2.48,2.88-4.81-.31-2.14-2.15-3.64-4.11-3.36-2.11.3-3,1.83-2.62,4.48Z"/>
          <path class="cls-31" d="m211.14,178.38c1.35-.68,1.75-1.8,1.61-3.03-.09-.85-.59-1.74-1.68-1.53-1.44.28-1.83,1.36-1.68,2.71.12,1.1.84,1.58,1.75,1.85Z"/>
          <path class="cls-39" d="m194.17,188.69c-.98.17-1.33.78-1.22,1.65.12,1.01.71,1.51,1.74,1.37.88-.12,1.45-.61,1.26-1.54-.19-.93-.9-1.37-1.78-1.48Z"/>
          <path d="m175.54,61.14c-.46-.33-2.68-1.95-5.1-1.27-1.46.41-2.74,1.5-3.5,3.22-1.67,3.75-1.24,7.45.92,10.89.75,1.19,1.86,2.63,3.75,3.13,2.21.58,4.56-.44,5.9-1.79,3.44-3.47,2.13-11.19-1.96-14.17Z"/>
          <path class="cls-12" d="m161.91,81.26c.33.85,1.01,1.5,2.06,1.38.85-.09,1.47-.81,1.31-1.6-.23-1.2-1.24-1.5-2.38-1.32-.83.13-1.19.58-1,1.55Z"/>
          <path class="cls-34" d="m174.65,65.49c.82-.25,1.31-.75,1.23-1.67-.09-.97-.56-1.74-1.57-1.65-.82.07-1.29.74-1.24,1.66.06,1,.55,1.57,1.58,1.66Z"/>
        </g>
        <g>
          <g>
            <path d="m300.15,196.32c0,4.28-1.16,8.33-3.46,12.04-.98,1.65-1.66,3.29-2.02,4.89-.44,1.88-.66,3.87-.66,5.92,0,.56.01,1.17.04,1.81.04.96.06,1.71.06,2.32,0,3.63-.49,7.25-1.45,10.78-.95,3.49-2.33,6.81-4.09,9.86-1.54,2.7-3.49,5.05-5.79,7.01-2.11,1.79-4.45,3.3-6.97,4.47-1.82.84-3.71,1.52-5.64,2.03.17,1.07.26,2.14.26,3.21,0,4.02-1.07,7.44-3.18,10.16-1.82,2.35-4.21,4.13-7.09,5.29-1.74.7-3.65,1.19-5.68,1.48,0,.28,0,.58,0,.87,0,3.24.09,6.51.25,9.71.15,2.94.51,5.94,1.07,8.91.16.86.29,1.75.38,2.61.09.94.14,1.87.14,2.79,0,2.01-.31,4.07-.94,6.11-1.35,4.41-4.7,7.62-9.2,8.81l-.45.12-.46.08c-1.29.22-2.68.4-4.12.54-1.56.16-3.12.23-4.65.23h-.01c-.68,0-1.39-.02-2.08-.07-.62-.04-1.25-.1-1.91-.17-2.93-.27-5.69-1.52-7.97-3.61-.36-.33-.71-.68-1.05-1.04-.24.21-.48.39-.7.55-3,2.21-6.77,3.34-11.54,3.45h-.12s-.12,0-.12,0c-3.94,0-7.37-1.06-10.18-3.15-2.33-1.73-4.17-3.94-5.48-6.55-.65,3.45-2.5,6.44-5.36,8.6-2.86,2.16-6.25,3.3-9.8,3.3-4.31,0-8.12-1.09-11.33-3.22-2.85-1.9-5.16-4.38-6.87-7.36-.08-.14-.16-.28-.24-.43-.34.16-.69.3-1.05.45-3.04,1.24-6.22,2.16-9.46,2.74-3.18.57-5.9.84-8.35.84h0c-2.74,0-5.38-.28-7.87-.83-.55.93-1.2,1.81-1.94,2.62-3.03,3.35-7.17,5.19-11.67,5.19-1.37,0-2.71-.15-3.97-.45-.49-.12-.98-.23-1.49-.34l-2.46-.57c-.15-.05-.31-.09-.46-.14-2.62-.76-4.96-1.94-6.96-3.49-.22.21-.45.42-.69.62-2.79,2.32-6.49,3.45-11.31,3.45-7.49,0-13.59-3.13-17.24-8.81-1.68,3.15-4.57,5.41-8.19,6.37l-.45.12-.46.08c-1.29.22-2.67.4-4.12.54-1.57.16-3.13.23-4.66.23-.68,0-1.39-.02-2.08-.07-.62-.04-1.26-.1-1.91-.17-2.94-.27-5.69-1.52-7.98-3.61-1.4-1.28-2.65-2.82-3.69-4.56-.97-1.61-1.74-3.38-2.31-5.24-.62-2.02-.94-4.02-.94-5.92,0-3.14.26-6.35.77-9.55.41-2.54.76-5.04,1.05-7.46l.19-1.71c-.42-.05-.83-.12-1.23-.19-3.68-.66-6.77-2.54-8.93-5.42-1.63-2.18-2.71-4.93-3.2-8.19-.28-1.87-.44-4.2-.47-7.07-3.03-.47-5.87-1.3-8.5-2.48-4.36-1.96-8.09-4.7-11.07-8.13-2.91-3.34-5.12-7.29-6.58-11.73-1.36-4.15-2.05-8.62-2.05-13.26,0-5.38,1.05-10.79,3.11-16.08,2-5.14,4.77-9.85,8.23-13.99,3.56-4.26,7.81-7.78,12.63-10.44,5.23-2.89,10.91-4.36,16.86-4.36,2.85,0,5.72.37,8.52,1.1,2.95.77,5.69,1.94,8.15,3.47,2.81,1.75,5.14,3.98,6.93,6.64.38.57.73,1.15,1.04,1.75,2.47-2.33,5.46-3.83,9.12-3.83.19,0,.39,0,.58.01,5.46.26,8.28,3.95,9.2,5.16.03.04.06.08.09.12.29.12.71.19,1.23.19.44,0,.86-.04,1.27-.09.58-.06,1.79-.19,2.74-.88.44-.32.64-.62,1.2-1.51,1.12-1.77,4.09-6.46,10.39-6.82.23-.01.47-.02.7-.02,1.01,0,1.95.11,2.83.31,1.12-1.32,2.38-2.61,3.74-3.85,1.96-1.77,4.09-3.23,6.35-4.36,3.87-1.94,7.85-3.46,11.82-4.55,4.2-1.14,8.53-1.73,12.88-1.73,3.92,0,7.89.5,11.79,1.5,5.37,1.35,9.69,4.1,12.85,8.18.82,1.07,1.54,2.18,2.15,3.33,2.37-.97,4.75-1.78,7.14-2.43,4.19-1.14,8.53-1.72,12.88-1.72,3.92,0,7.89.5,11.79,1.5,4.1,1.03,7.6,2.88,10.43,5.52,1.56-1.81,3.5-3.29,5.76-4.35,3.01-1.42,6.18-2.14,9.42-2.14,2.19,0,4.32.35,6.33,1.04,2.06.71,3.9,1.71,5.51,2.98.73.58,1.41,1.21,2.02,1.89.22-.31.47-.61.72-.89,2.37-2.67,5.73-4.15,9.43-4.15.96,0,1.92.02,2.85.05.65.03,1.35.04,2.1.04h3.39c2.7,0,5.25.75,7.45,2.18l2.6-1.53c1.89-1.11,3.92-1.94,6.04-2.44,1.9-.45,3.84-.68,5.76-.68,1.32,0,2.72.08,4.26.23,2,.21,3.94.65,5.79,1.32,2.37.86,4.5,2.17,6.37,3.9,2.08,1.94,3.65,4.41,4.67,7.35.1.33.21.65.31.98.47,2.06.7,4.03.7,5.86Z"/>
            <g>
              <path d="m206.3,252.23c.05-.03.1-.06.15-.1-.02.06-.04.13-.05.2-.03-.03-.07-.06-.1-.1Z"/>
              <path d="m216.31,242.75c-.57.15-1.11.32-1.61.52.27-.53.52-1.08.73-1.63,0,0,.01.02.02.03.11.14.22.29.34.43.18.22.35.43.52.66Z"/>
            </g>
            <g>
              <path d="m206.3,252.23c.05-.03.1-.06.15-.1-.02.06-.04.13-.05.2-.03-.03-.07-.06-.1-.1Z"/>
              <path d="m216.31,242.75c-.57.15-1.11.32-1.61.52.27-.53.52-1.08.73-1.63,0,0,.01.02.02.03.11.14.22.29.34.43.18.22.35.43.52.66Z"/>
            </g>
          </g>
          <g>
            <path class="cls-37" d="m42.49,227.78l-1.83.55c-.73.24-1.35.46-1.83.64-.49.18-.92.24-1.28.18-.49,0-1.04-.15-1.65-.46-.61-.31-1.19-.72-1.74-1.24-.55-.52-1.01-1.13-1.38-1.83-.37-.7-.55-1.45-.55-2.25,0-1.83.79-3.45,2.39-4.86,1.59-1.41,3.5-2.58,5.73-3.53,2.23-.95,4.53-1.65,6.88-2.11,2.35-.46,4.27-.69,5.73-.69,2.63,0,4.75.8,6.38,2.39,1.62,1.59,2.43,3.76,2.43,6.51,0,3.67-.73,7.17-2.2,10.5-1.47,3.33-3.46,6.27-5.96,8.81-2.51,2.54-5.41,4.55-8.72,6.05-3.3,1.5-6.82,2.25-10.55,2.25-3.98,0-7.49-.69-10.55-2.07-3.06-1.38-5.61-3.24-7.66-5.6-2.05-2.35-3.59-5.12-4.63-8.3-1.04-3.18-1.56-6.57-1.56-10.18,0-4.16.81-8.32,2.43-12.47,1.62-4.16,3.82-7.9,6.61-11.24,2.78-3.33,6.05-6.04,9.82-8.12,3.76-2.08,7.78-3.12,12.06-3.12,2.02,0,4.02.26,6.01.78,1.99.52,3.79,1.28,5.41,2.29,1.62,1.01,2.94,2.26,3.94,3.76,1.01,1.5,1.51,3.23,1.51,5.18,0,1.9-.81,3.65-2.43,5.27-1.62,1.62-3.53,2.71-5.73,3.26-.8,0-1.64-.21-2.52-.64-.89-.43-1.82-.92-2.8-1.47-.98-.55-1.97-1.04-2.98-1.47-1.01-.43-2.03-.64-3.07-.64-2.02,0-3.82.57-5.41,1.7-1.59,1.13-2.97,2.6-4.13,4.4-1.16,1.8-2.05,3.84-2.66,6.1-.61,2.26-.92,4.53-.92,6.79,0,.8.05,1.56.14,2.29.09.73.2,1.5.32,2.29.37,2.08,1.44,3.82,3.21,5.23,1.77,1.41,4.31,2.14,7.61,2.2,1.89.06,3.59-.6,5.09-1.97,1.5-1.38,2.61-3.32,3.35-5.82l-2.29.64Z"/>
            <path class="cls-37" d="m113.5,209.64c-.43-2.35-1.12-4.59-2.06-6.7-.95-2.11-2.22-4.02-3.81-5.73-2.59-2.79-4.09-4.41-5.78-4.31-2.38.14-2.29,3.52-6.33,6.46-3.03,2.2-6.23,2.57-7.51,2.71-1.54.16-5.15.54-8.56-1.4-3.19-1.82-3.01-3.85-4.74-3.94-4.17-.2-8.1,11.52-8.72,13.37-.51,1.52-.82,2.73-.95,3.3-.77,3.17-1.15,6.42-1.15,9.77,0,2.51.24,5.17.73,7.98.3,1.96.96,3.9,1.97,5.83,1.01,1.92,2.25,3.68,3.71,5.27,1.47,1.59,3.09,2.93,4.86,4.04,1.77,1.1,3.58,1.83,5.41,2.2,1.04.24,2.08.41,3.12.5s2.05.14,3.03.14c4.04,0,7.72-.92,11.05-2.75,3.33-1.84,6.22-4.27,8.67-7.29,2.45-3.03,4.34-6.48,5.69-10.37,1.35-3.88,2.02-7.84,2.02-11.88,0-2.45-.22-4.85-.64-7.2Zm-38.59,13.52c-.47,1.82-1.93,3.03-3.28,2.68-1.35-.34-2.06-2.1-1.59-3.92.47-1.82,1.93-3.03,3.28-2.68,1.34.34,2.05,2.1,1.59,3.92Zm6.07,15.77c-.49,1.94-1.96,3.23-3.29,2.9-1.32-.34-1.99-2.18-1.5-4.11.5-1.94,1.96-3.23,3.29-2.89,1.32.34,1.99,2.18,1.5,4.11Zm1.08-31.4c-.48,1.86-1.98,3.08-3.36,2.73-1.38-.35-2.12-2.15-1.64-4.01.47-1.86,1.98-3.08,3.36-2.73,1.38.35,2.12,2.15,1.64,4.01Zm4.39,9.34c-1.02-.26-1.57-1.59-1.22-2.96.35-1.37,1.46-2.28,2.49-2.02,1.02.26,1.57,1.59,1.22,2.96-.35,1.37-1.46,2.28-2.49,2.02Zm3.57,11.87c-1.35-.35-2.05-2.17-1.56-4.07.49-1.9,1.97-3.17,3.32-2.82,1.35.34,2.05,2.16,1.56,4.07s-1.97,3.17-3.32,2.82Zm6.14,10.57c-.77,1.8-2.44,2.82-3.72,2.28-1.28-.55-1.69-2.46-.91-4.26.77-1.8,2.44-2.82,3.71-2.27,1.28.55,1.69,2.45.92,4.26Zm5.59-34.79c-.55,2.18-2.32,3.61-3.94,3.19-1.62-.41-2.48-2.52-1.93-4.69.55-2.18,2.32-3.61,3.94-3.19,1.62.41,2.48,2.52,1.93,4.69Zm3.79,24.81c-.39,1.03-1.33,1.62-2.12,1.33-.78-.29-1.1-1.37-.72-2.39.39-1.03,1.33-1.62,2.12-1.32.78.29,1.1,1.37.72,2.39Zm4.25-15.26c-.56,2.18-2.32,3.61-3.94,3.19-1.62-.41-2.48-2.52-1.93-4.69.55-2.18,2.32-3.6,3.94-3.19,1.62.41,2.48,2.51,1.93,4.69Z"/>
            <path class="cls-37" d="m150.27,207.99c3.55,1.04,6.13,2.65,7.75,4.82,1.62,2.17,2.43,5.24,2.43,9.22,0,.49-.02,1.07-.05,1.74-.03.67-.08,1.32-.14,1.93-.24,2.02-.84,3.76-1.79,5.23-.95,1.47-2.22,2.72-3.81,3.76-7.34,4.83-15.23,7.25-23.67,7.25-.73,0-1.44-.02-2.11-.05-.67-.03-1.35-.08-2.02-.14-.49,0-1.01-.09-1.56-.28-3.49-.98-5.92-2.42-7.29-4.31-1.38-1.9-2-4.53-1.88-7.89.31-4.65.66-9.36,1.06-14.13.4-4.77.84-9.57,1.33-14.4l-1.56.37c-.92.25-1.82.37-2.71.37s-1.64-.55-2.25-1.65c-.49-.86-.87-1.73-1.15-2.61-.28-.89-.41-1.76-.41-2.61,0-.67.11-1.38.32-2.11.21-.73.56-1.44,1.06-2.11.98-1.22,2.11-2.41,3.39-3.58,1.28-1.16,2.66-2.11,4.13-2.84,3.3-1.65,6.64-2.93,10-3.85,3.36-.92,6.79-1.38,10.27-1.37,3.12,0,6.24.4,9.36,1.19,3.18.8,5.66,2.34,7.43,4.63,1.77,2.29,2.66,4.82,2.66,7.57,0,1.22-.18,2.48-.55,3.76-.37,1.28-.98,2.54-1.83,3.76-.67,1.1-1.44,2.16-2.29,3.16-.86,1.01-1.74,2.03-2.66,3.07l-1.56,1.83.09.28Zm-19.45-.46c3.61-.86,6.44-2.38,8.49-4.59,2.05-2.2,3.78-4.68,5.18-7.43.12-.24-.02-.69-.41-1.33-.4-.64-.75-.99-1.05-1.05-1.1-.18-2.2-.28-3.3-.28-.49,0-.95.02-1.38.05-.43.03-.89.08-1.38.14-.49.12-1.05.35-1.7.69-.64.34-1.03.75-1.15,1.24-.49,1.47-.95,2.98-1.38,4.54-.43,1.56-.86,3.13-1.28,4.72v-.09l-.83,3.12.18.28Zm5.41,20.64c1.41-.67,2.78-1.34,4.13-2.02,1.34-.67,2.63-1.38,3.85-2.11,1.53-.98,2.29-1.96,2.29-2.94,0-.61-.27-1.19-.83-1.74-.55-.55-1.28-1.04-2.2-1.47-1.22-.55-2.39-.83-3.49-.83-.92,0-1.87.14-2.84.41-.98.28-1.9.57-2.75.87-.43.12-.81.24-1.15.37-.34.12-.72.25-1.15.37h-.09c-.12.06-.29.24-.5.55-.21.31-.32.58-.32.83l.64,9.82,4.4-2.11Z"/>
            <path class="cls-37" d="m197.07,216.84c3.55,1.04,6.13,2.65,7.75,4.82,1.62,2.17,2.43,5.24,2.43,9.22,0,.49-.02,1.07-.05,1.74-.03.67-.08,1.32-.14,1.93-.24,2.02-.84,3.76-1.79,5.23-.95,1.47-2.22,2.72-3.81,3.76-7.34,4.83-15.23,7.25-23.67,7.25-.73,0-1.44-.02-2.11-.05-.67-.03-1.35-.08-2.02-.14-.49,0-1.01-.09-1.56-.28-3.49-.98-5.92-2.42-7.29-4.31-1.38-1.9-2-4.53-1.88-7.89.31-4.65.66-9.36,1.06-14.13.4-4.77.84-9.57,1.33-14.4l-1.56.37c-.92.24-1.82.37-2.71.37s-1.64-.55-2.25-1.65c-.49-.86-.87-1.73-1.15-2.61-.28-.89-.41-1.76-.41-2.61,0-.67.11-1.38.32-2.11.21-.73.56-1.44,1.06-2.11.98-1.22,2.11-2.41,3.39-3.58,1.28-1.16,2.66-2.11,4.13-2.84,3.3-1.65,6.64-2.93,10-3.85,3.36-.92,6.79-1.38,10.27-1.38,3.12,0,6.24.4,9.36,1.19,3.18.8,5.66,2.34,7.43,4.63,1.77,2.29,2.66,4.82,2.66,7.57,0,1.22-.18,2.48-.55,3.76-.37,1.28-.98,2.54-1.83,3.76-.67,1.1-1.44,2.16-2.29,3.16-.86,1.01-1.74,2.03-2.66,3.07l-1.56,1.83.09.28Zm-19.45-.46c3.61-.86,6.44-2.38,8.49-4.59,2.05-2.2,3.78-4.68,5.18-7.43.12-.24-.02-.69-.41-1.33-.4-.64-.75-.99-1.05-1.05-1.1-.18-2.2-.28-3.3-.28-.49,0-.95.02-1.38.05-.43.03-.89.08-1.38.14-.49.12-1.05.35-1.7.69-.64.34-1.03.75-1.15,1.24-.49,1.47-.95,2.98-1.38,4.54-.43,1.56-.86,3.13-1.28,4.72v-.09l-.83,3.12.18.28Zm5.41,20.64c1.41-.67,2.78-1.34,4.13-2.02,1.34-.67,2.63-1.38,3.85-2.11,1.53-.98,2.29-1.96,2.29-2.94,0-.61-.27-1.19-.83-1.74-.55-.55-1.28-1.04-2.2-1.47-1.22-.55-2.39-.83-3.49-.83-.92,0-1.87.14-2.84.41-.98.28-1.9.57-2.75.87-.43.12-.81.24-1.15.37-.34.12-.72.25-1.15.37h-.09c-.12.06-.29.24-.5.55-.21.31-.32.58-.32.83l.64,9.82,4.4-2.11Z"/>
            <path class="cls-37" d="m210.07,222.59c.12-2.26.26-4.63.41-7.11.15-2.48.37-4.92.64-7.34.28-2.42.64-4.75,1.1-7.02.46-2.26,1.09-4.28,1.88-6.05l.92-2.11c.73-1.65,1.94-2.87,3.62-3.67,1.68-.79,3.41-1.19,5.18-1.19,1.1,0,2.14.17,3.12.5.98.34,1.83.8,2.57,1.38.73.58,1.31,1.27,1.74,2.06.43.8.64,1.65.64,2.57,0,1.22-.23,2.6-.69,4.13-.46,1.53-.84,2.94-1.15,4.22-1.04,3.91-1.9,7.86-2.57,11.83-.67,3.98-1.01,7.98-1.01,12.02,0,.67.14,1.12.41,1.33.28.22.66.32,1.15.32,1.9,0,3.94-.24,6.15-.73,2.2-.49,4.31-.73,6.33-.73,1.1,0,1.97.44,2.61,1.33.64.89,1.15,1.88,1.51,2.98.37,1.1.61,2.19.73,3.26.12,1.07.18,1.79.18,2.16,0,1.96-.58,3.53-1.74,4.72-1.16,1.19-2.66,2.14-4.5,2.84-1.83.7-3.9,1.27-6.19,1.7-2.29.43-4.54.86-6.74,1.28l-4.31.73c-.31.06-.58.11-.83.14-.25.03-.49.05-.73.05-1.59,0-3.09-.35-4.49-1.06-1.41-.7-2.61-1.67-3.62-2.89-1.01-1.22-1.8-2.63-2.38-4.22-.58-1.59-.87-3.27-.87-5.05v-.64l.92-11.74Z"/>
            <path class="cls-37" d="m267.39,224.66c-1.04.31-1.9.61-2.57.92h.09l-1.56.55c-1.9.67-3.73,1.01-5.5,1.01-2.51,0-4.71-.46-6.6-1.38-1.9-.92-3.47-2.19-4.72-3.81-1.25-1.62-2.2-3.52-2.84-5.69-.64-2.17-.96-4.54-.96-7.11,0-2.69.2-5.29.6-7.8.4-2.51.84-5.11,1.33-7.8l.28-1.65c.12-.86.43-1.56.92-2.11.49-.55,1.16-.83,2.02-.83.86,0,1.68.02,2.48.05.79.03,1.62.05,2.48.05h3.39c.92,0,1.71.28,2.38.83.67.55,1.21,1.24,1.6,2.06.4.83.69,1.74.87,2.75.18,1.01.27,1.94.27,2.8,0,1.04-.07,2.1-.22,3.16-.14,1.07-.33,2.13-.56,3.16,0,.67-.13,1.45-.39,2.34-.26.89-.39,1.73-.39,2.52,0,1.04.29,1.85.87,2.43.58.58,1.29.87,2.15.87.79,0,1.55-.23,2.28-.69.73-.46,1.42-1.02,2.06-1.7.64-.67,1.17-1.44,1.6-2.29.43-.86.73-1.68.91-2.48.3-2.69.58-5.38.82-8.07.24-2.69.52-5.5.82-8.44,1.03-.61,2.13-1.05,3.29-1.33,1.16-.28,2.31-.41,3.47-.41.97,0,2.06.06,3.24.18,1.19.12,2.33.38,3.43.78,1.1.4,2.09,1.01,2.98,1.83.89.83,1.57,1.94,2.06,3.35v-.09c.31,1.35.46,2.57.46,3.67,0,2.45-.67,4.74-2.02,6.88-1.53,2.57-2.6,5.17-3.21,7.8-.61,2.63-.92,5.35-.92,8.16,0,.67.01,1.41.05,2.2.03.8.05,1.44.05,1.93,0,2.75-.37,5.47-1.1,8.16-.73,2.69-1.77,5.2-3.12,7.52-.98,1.71-2.19,3.18-3.62,4.4-1.44,1.22-3.01,2.23-4.72,3.03-1.71.79-3.49,1.38-5.32,1.74-1.83.37-3.61.55-5.32.55-3.85,0-6.99-.86-9.4-2.57-2.42-1.71-3.62-4.16-3.62-7.34,0-.79.2-1.62.6-2.48.4-.86.92-1.64,1.56-2.34.64-.7,1.36-1.28,2.16-1.74.79-.46,1.59-.69,2.39-.69.49,0,1.04.08,1.65.23.61.15,1.19.23,1.74.23l1.65.46c.55.18,1.1.35,1.65.51.55.15,1.1.2,1.65.14,1.59,0,2.8-.55,3.62-1.65.83-1.1,1.24-2.6,1.24-4.49,0-.31-.02-.64-.05-1.01-.03-.37-.08-.73-.14-1.1l-.28-.18Z"/>
            <path class="cls-37" d="m52.9,269.21c-1.05,0-2.03.03-2.95.09-.92.06-1.84.09-2.75.09-1.9,0-3.44-.11-4.63-.32-1.19-.21-2.11-.75-2.75-1.61-.64-.86-1.09-2.09-1.33-3.71-.25-1.62-.37-3.87-.37-6.74,0-1.89.24-3.29.73-4.17.49-.89,1.68-1.48,3.58-1.79,4.77-.43,9.58-.98,14.44-1.65,4.86-.67,9.55-1.01,14.09-1.01h1.7c.64,0,1.21.03,1.7.09,1.16.12,2.28.54,3.35,1.24,1.07.7,1.99,1.59,2.75,2.66.53.74.67.87.72,1.11.12.63-.19,1.18-.34,1.42-1.74,2.95-2.18,3.26-2.58,4.26-.39.98-1.01,3.26-.41,5.53.14.52.34,1.04.07,1.44-.32.46-1.26.53-3.14.65-.26.02-.29.01-.7.04-.9.05-2.48.16-4.11.38-.92.12-1.62.37-2.11.73-.49.37-.73,1.07-.73,2.11,0,1.22-.02,2.45-.05,3.67-.03,1.22-.05,2.45-.05,3.67,0,3.43.09,6.83.26,10.23s.58,6.8,1.22,10.23c.12.61.2,1.21.26,1.79.06.58.09,1.18.09,1.79,0,1.04-.17,2.11-.51,3.21-.34,1.1-1.09,1.8-2.25,2.11-1.1.18-2.26.34-3.49.46-1.22.12-2.45.18-3.67.18-.49,0-.98-.02-1.47-.05-.49-.03-1.01-.08-1.56-.14-.8-.06-1.55-.41-2.25-1.05-.7-.64-1.33-1.42-1.88-2.34-.55-.92-.99-1.93-1.33-3.03-.34-1.1-.5-2.11-.5-3.03,0-2.63.22-5.29.65-7.98.43-2.69.8-5.32,1.11-7.89l1.11-10.09c.09-.32.19-.76.21-1.28.02-.52-.04-.96-.12-1.28Z"/>
            <path class="cls-37" d="m88.18,265.27c-.31.12-.55.21-.73.28-.18.06-.37.12-.55.18l-2.11.83c-.67.25-1.35.37-2.02.37-2.02,0-3.03-1.44-3.03-4.31,0-2.08.96-4,2.89-5.78,1.93-1.77,4.28-3.3,7.06-4.59,2.78-1.28,5.73-2.29,8.85-3.03,3.12-.73,5.84-1.1,8.16-1.1,2.14,0,4.42.22,6.83.64,2.42.43,4.66,1.24,6.74,2.43,2.08,1.19,3.79,2.83,5.14,4.91,1.34,2.08,2.02,4.77,2.02,8.07,0,2.26-.37,4.4-1.1,6.42-.73,2.02-1.7,3.91-2.89,5.69-1.19,1.77-2.57,3.44-4.13,5-1.56,1.56-3.17,3.01-4.82,4.36,1.28,1.28,2.69,2.61,4.22,3.99,1.53,1.38,2.94,2.8,4.22,4.27,1.28,1.47,2.35,2.97,3.21,4.5.86,1.53,1.28,3.03,1.28,4.49,0,2.02-.58,3.67-1.74,4.95-1.16,1.28-2.6,1.93-4.31,1.93-.61,0-1.18-.06-1.7-.18-.52-.12-1.05-.24-1.6-.37l-2.39-.55h.09c-1.47-.43-2.72-1.06-3.76-1.88-1.04-.83-1.97-1.76-2.8-2.8-.83-1.04-1.62-2.17-2.38-3.39-.77-1.22-1.61-2.42-2.52-3.58l-1.83-2.39c-.18-.31-.55-.56-1.1-.78-.55-.21-.89-.32-1.01-.32,0,.06.03.09.09.09l-.28.09c0,.12-.02.2-.05.23-.03.03-.05.11-.05.23v-.09c-.12.31-.22.63-.28.96-.06.34-.09.69-.09,1.06l.27,2.48c.12,1.04.21,2.03.28,2.98.06.95.09,1.91.09,2.89,0,1.41-.46,2.49-1.38,3.26-.92.76-2.57,1.15-4.95,1.15-4.22,0-7.23-1.5-9.04-4.5-1.8-3-2.71-7.12-2.7-12.38,0-4.52.56-8.99,1.7-13.39,1.13-4.4,2.62-8.74,4.45-13.03l-.28-.28Zm14.49,12.38c1.1-.55,2.34-1.3,3.72-2.25,1.38-.95,2.64-1.99,3.81-3.12,1.16-1.13,2.14-2.28,2.94-3.44.79-1.16,1.19-2.26,1.19-3.3,0-1.1-.72-1.99-2.16-2.66-1.44-.67-3.47-1.01-6.1-1.01-1.65,0-2.81.29-3.49.87-.67.58-1.13,1.76-1.38,3.53-.18,1.47-.32,2.94-.41,4.4s-.2,3-.32,4.59l-.18,3.76,2.38-1.38Z"/>
            <path class="cls-37" d="m147.91,267.01c1.22-.24,2.52-.55,3.9-.92,1.38-.37,2.68-.55,3.9-.55.79,0,1.53.25,2.2.73.67.49,1.24,1.12,1.7,1.88.46.77.83,1.58,1.1,2.43.27.86.41,1.65.41,2.39,0,1.1-.41,2.05-1.24,2.84-.83.8-1.83,1.48-3.03,2.06-1.19.58-2.49,1.1-3.9,1.56-1.41.46-2.69.87-3.85,1.24l-4.31,1.47c-.12.43-.25,1.12-.37,2.06-.12.95-.24,2.06-.37,3.35,1.77-.43,3.39-.9,4.86-1.42,1.47-.52,2.94-.96,4.4-1.33l1.01-.28h-.09c1.1-.24,2.26-.47,3.49-.69,1.22-.21,2.2-.32,2.94-.32.98,0,2.03.64,3.17,1.93,1.13,1.28,1.7,3.21,1.7,5.78,0,1.96-.84,3.65-2.52,5.09-1.68,1.44-3.72,2.64-6.1,3.62-2.39.98-4.86,1.7-7.43,2.16-2.57.46-4.77.69-6.61.69-2.32,0-4.48-.26-6.47-.78-1.99-.52-3.69-1.33-5.09-2.43-1.41-1.1-2.51-2.52-3.3-4.27-.8-1.74-1.19-3.81-1.19-6.19,0-1.89.21-3.84.64-5.82.43-1.99.79-3.93,1.1-5.82l.73-4.31c.06-.67.12-1.34.18-2.02.06-.67.15-1.34.28-2.02l.92-7.52c0-1.34-.2-2.64-.6-3.9-.4-1.25-.6-2.46-.6-3.62,0-1.65.43-3.12,1.28-4.4.86-1.28,2.17-2.26,3.95-2.93,3.3-1.22,6.62-2.25,9.95-3.07,3.33-.83,6.71-1.24,10.14-1.24,2.7,0,4.06-.08,4.82.32.21.11.37.22.51.34.63.55.94,1.13,1.2,1.63,0,0,.11.2,1.17,1.88,1.1,1.73,2.65,2.83,3.77,3.61,1.57,1.11,2.17,1.16,2.35,1.89.18.74-.22,1.58-.84,2.89-.23.49-.38.79-.66,1.15-.48.59-1.11,1.05-1.91,1.38-1.25.52-2.95.81-5.09.87-2.14.06-4.92.18-8.35.37-2.14.12-3.82.9-5.04,2.34-1.22,1.44-1.83,3.23-1.84,5.37,0,.18.01.37.05.55.03.18.05.37.05.55l2.94-.55Z"/>
            <path class="cls-37" d="m210.97,307.56c-1.77,0-3.2-.4-4.27-1.19-1.07-.8-1.91-1.8-2.52-3.03-.61-1.22-1.09-2.54-1.42-3.94-.34-1.41-.66-2.72-.96-3.94-.31-1.22-.7-2.23-1.19-3.03-.49-.79-1.16-1.19-2.02-1.19l-1.28.18c-1.16.18-2.48.34-3.94.46-1.47.12-2.84.34-4.13.64-1.28.31-2.35.75-3.21,1.33-.86.58-1.28,1.39-1.28,2.43,0,1.41.05,2.71.14,3.9s.29,2.34.6,3.44v-.09c.12.61.18,1.07.18,1.38,0,1.53-.57,2.72-1.7,3.58-1.13.86-2.4,1.28-3.81,1.28-2.32,0-4.27-.52-5.82-1.56-1.56-1.04-2.81-2.39-3.76-4.04-.95-1.65-1.64-3.47-2.06-5.46-.43-1.99-.64-3.93-.64-5.82,0-1.41.15-2.98.46-4.72.31-1.74.76-3.35,1.38-4.82,2.03-4.86,4.01-9.75,5.69-13.58.8-1.83,2.64-6.03,4.42-9.81,1.19-2.51.7-1.34,1.63-3.31,1.12-2.37,1.13-3.44,2.17-3.98.42-.22.52-.1,2.53-.45,0,0,.67-.11,2.17-.42,1.56-.32,6.72-1.6,13.4-5.24.85-.46,2.12-1.19,3.49-.82,1.24.33,1.94,1.45,2.94,2.66.86,1.04,1.47,2.17,1.83,3.39l.27.83v-.09c.06.55.18,1.13.37,1.74.18.61.37,1.22.55,1.83l.73,2.75c.79,3,1.5,5.87,2.11,8.62.61,2.75,1.15,5.46,1.6,8.12.46,2.66.87,5.32,1.24,7.98.37,2.66.7,5.4,1.01,8.21l.82,7.71c.06.31.09.61.09.92v.92c0,2.2-.64,3.78-1.93,4.72-1.28.95-3.24,1.45-5.87,1.51Zm-23.85-26.97c1.59-.06,3.12-.17,4.59-.32,1.47-.15,2.87-.29,4.22-.41l4.04-.27c-.49-1.71-1.02-3.72-1.6-6.01-.58-2.29-1.12-4.33-1.6-6.1l-1.28-5.96-2.2,3.21-3.76,9.08-2.75,6.05.37.73Z"/>
            <path class="cls-37" d="m230.42,270.27c-1.05,0-2.03.03-2.95.09-.92.06-1.84.09-2.75.09-1.9,0-3.44-.11-4.63-.32-1.19-.21-2.11-.75-2.75-1.61-.64-.86-1.09-2.09-1.33-3.71-.24-1.62-.37-3.87-.37-6.74,0-1.89.24-3.29.73-4.17.49-.89,1.68-1.48,3.58-1.79,4.77-.43,9.58-.98,14.44-1.65,4.86-.67,9.55-1.01,14.09-1.01.49,0,1.06,0,1.7,0,.64,0,1.21.03,1.7.09,1.16.12,2.28.54,3.35,1.24,1.07.7,1.99,1.59,2.75,2.66.76,1.07,1.38,2.23,1.83,3.49.46,1.25.69,2.49.69,3.71,0,1.77-.37,3.13-1.1,4.08-.73.95-1.71,1.67-2.94,2.16-1.22.49-2.61.81-4.17.96-1.56.15-3.16.29-4.82.41-.92.12-1.62.37-2.11.73-.49.37-.73,1.07-.73,2.11,0,1.22-.02,2.45-.05,3.67-.03,1.22-.05,2.45-.05,3.67,0,3.43.09,6.83.26,10.23.17,3.39.58,6.8,1.22,10.23.12.61.2,1.21.26,1.79.06.58.09,1.18.09,1.79,0,1.04-.17,2.11-.5,3.21-.34,1.1-1.09,1.8-2.25,2.11-1.1.18-2.26.34-3.49.46-1.22.12-2.45.18-3.67.18-.49,0-.98-.02-1.47-.05-.49-.03-1.01-.08-1.56-.14-.8-.06-1.54-.41-2.25-1.06-.7-.64-1.33-1.42-1.88-2.34-.55-.92-.99-1.93-1.33-3.03-.34-1.1-.5-2.11-.5-3.03,0-2.63.22-5.29.65-7.98.43-2.69.8-5.32,1.11-7.89l1.11-10.09c.18-.92.28-1.71.28-2.39l-.18-.18Z"/>
          </g>
        </g>
      </g>
    </g>
  </g>
</svg>